<svg xmlns="http://www.w3.org/2000/svg" xmlns:xlink="http://www.w3.org/1999/xlink" width="500" zoomAndPan="magnify" viewBox="0 0 375 374.999991" height="500" preserveAspectRatio="xMidYMid meet" version="1.0"><defs><g/></defs><rect x="-37.5" width="450" fill="#ffffff" y="-37.499999" height="449.999989" fill-opacity="1"/><rect x="-37.5" width="450" fill="#ffffff" y="-37.499999" height="449.999989" fill-opacity="1"/><rect x="-37.5" width="450" fill="#f5a9b8" y="-37.499999" height="449.999989" fill-opacity="1"/><g fill="#000000" fill-opacity="1"><g transform="translate(36.515796, 305.927771)"><g><path d="M 110.796875 -84.453125 C 112.242188 -84.210938 113.566406 -84.09375 114.765625 -84.09375 C 117.660156 -84.09375 119.585938 -84.695312 120.546875 -85.90625 C 121.265625 -86.863281 121.625 -88.304688 121.625 -90.234375 C 121.625 -91.671875 121.382812 -93.59375 120.90625 -96 C 119.707031 -102.257812 116.097656 -126.5625 110.078125 -168.90625 C 109.835938 -170.59375 109.71875 -171.675781 109.71875 -172.15625 L 109.71875 -172.515625 L 110.078125 -172.15625 L 108.28125 -176.125 C 106.832031 -174.445312 106.109375 -172.644531 106.109375 -170.71875 C 106.109375 -169.507812 106.347656 -168.304688 106.828125 -167.109375 C 106.828125 -166.390625 106.707031 -165.664062 106.46875 -164.9375 C 102.863281 -150.5 100.695312 -142.441406 99.96875 -140.765625 C 95.15625 -125.597656 89.503906 -108.992188 83.015625 -90.953125 C 82.535156 -89.503906 82.296875 -88.300781 82.296875 -87.34375 C 82.296875 -84.9375 83.738281 -83.734375 86.625 -83.734375 L 87.703125 -83.734375 C 89.148438 -83.734375 96.847656 -83.972656 110.796875 -84.453125 Z M 127.765625 -183.703125 C 132.578125 -129.804688 138.710938 -91.191406 146.171875 -67.859375 C 161.566406 -20.691406 180.210938 13.351562 202.109375 34.28125 C 202.109375 34.53125 202.472656 35.492188 203.203125 37.171875 L 197.78125 37.890625 C 188.882812 35.972656 180.101562 30.320312 171.4375 20.9375 C 157 5.78125 143.164062 -20.804688 129.9375 -58.828125 C 128.007812 -63.640625 125 -66.046875 120.90625 -66.046875 L 120.1875 -66.046875 C 114.65625 -65.566406 109.242188 -65.328125 103.953125 -65.328125 C 99.859375 -65.328125 95.765625 -65.445312 91.671875 -65.6875 L 89.875 -65.6875 C 78.800781 -65.6875 71.097656 -59.910156 66.765625 -48.359375 C 55.460938 -18.765625 48.609375 -1.800781 46.203125 2.53125 C 42.585938 8.300781 36.085938 12.867188 26.703125 16.234375 C 20.929688 18.160156 15.398438 19.125 10.109375 19.125 C 6.734375 19.125 3.484375 18.765625 0.359375 18.046875 C -5.410156 16.835938 -11.1875 12.867188 -16.96875 6.140625 C -22.5 -0.597656 -25.382812 -6.976562 -25.625 -13 L -25.625 -13.71875 C -25.625 -18.769531 -23.941406 -21.296875 -20.578125 -21.296875 C -19.128906 -21.296875 -17.5625 -20.9375 -15.875 -20.21875 C -10.582031 -18.050781 -4.566406 -16.003906 2.171875 -14.078125 C 2.648438 -13.835938 3.128906 -13.71875 3.609375 -13.71875 C 6.492188 -13.71875 9.257812 -16.242188 11.90625 -21.296875 C 11.90625 -22.015625 16.71875 -35.96875 26.34375 -63.15625 L 26.34375 -63.890625 C 26.34375 -64.847656 25.625 -65.566406 24.1875 -66.046875 C 12.875 -69.421875 6.375 -71.347656 4.6875 -71.828125 C 4.445312 -72.066406 2.285156 -73.148438 -1.796875 -75.078125 C 2.523438 -79.398438 5.171875 -81.5625 6.140625 -81.5625 L 29.953125 -81.5625 C 33.085938 -81.5625 35.132812 -83.25 36.09375 -86.625 C 57.507812 -148.457031 72.664062 -190.082031 81.5625 -211.5 C 87.101562 -225.21875 93.363281 -233.640625 100.34375 -236.765625 C 102.988281 -238.210938 105.515625 -238.9375 107.921875 -238.9375 C 109.835938 -238.9375 111.757812 -238.453125 113.6875 -237.484375 C 118.019531 -235.554688 120.664062 -232.066406 121.625 -227.015625 C 121.863281 -224.609375 123.910156 -210.171875 127.765625 -183.703125 Z M 127.765625 -183.703125 "/></g></g></g><g fill="#000000" fill-opacity="1"><g transform="translate(239.717288, 305.927771)"><g><path d="M 75.4375 -193.09375 C 75.4375 -195.738281 74.113281 -200.910156 71.46875 -208.609375 C 70.738281 -210.535156 69.773438 -211.5 68.578125 -211.5 C 67.859375 -211.5 67.015625 -211.257812 66.046875 -210.78125 C 56.660156 -204.28125 50.046875 -197.421875 46.203125 -190.203125 C 43.796875 -185.148438 42.59375 -180.335938 42.59375 -175.765625 C 42.59375 -165.421875 48.609375 -156.035156 60.640625 -147.609375 C 61.117188 -147.128906 61.597656 -146.890625 62.078125 -146.890625 C 62.796875 -146.890625 63.398438 -147.375 63.890625 -148.34375 C 71.109375 -158.6875 74.957031 -173.601562 75.4375 -193.09375 Z M -10.46875 -18.046875 L -10.46875 -23.09375 C -10.46875 -35.851562 -7.21875 -45.476562 -0.71875 -51.96875 C 0.476562 -53.175781 1.441406 -53.78125 2.171875 -53.78125 C 2.410156 -53.78125 2.648438 -53.660156 2.890625 -53.421875 C 3.128906 -53.179688 3.25 -52.816406 3.25 -52.328125 C 3.25 -51.847656 3.007812 -51.007812 2.53125 -49.8125 C -0.59375 -42.832031 -2.15625 -35.972656 -2.15625 -29.234375 C -2.15625 -23.222656 -0.832031 -17.328125 1.8125 -11.546875 C 7.34375 1.441406 18.171875 8.296875 34.296875 9.015625 L 34.65625 9.015625 C 36.8125 9.015625 43.785156 5.53125 55.578125 -1.4375 C 65.691406 -7.695312 71.585938 -16.960938 73.265625 -29.234375 C 73.984375 -34.523438 74.34375 -39.457031 74.34375 -44.03125 C 74.34375 -51.007812 73.503906 -57.265625 71.828125 -62.796875 C 67.972656 -74.828125 60.03125 -91.3125 48 -112.25 C 47.039062 -113.925781 45.597656 -114.765625 43.671875 -114.765625 C 42.953125 -114.765625 42.226562 -114.644531 41.5 -114.40625 C 35.25 -112.96875 29.476562 -112.25 24.1875 -112.25 C 18.40625 -112.25 13.109375 -113.085938 8.296875 -114.765625 C -0.117188 -117.660156 -7.578125 -123.800781 -14.078125 -133.1875 C -20.566406 -142.320312 -23.9375 -151.34375 -24.1875 -160.25 C -24.1875 -161.445312 -23.820312 -162.53125 -23.09375 -163.5 L -22.734375 -163.859375 C -22.015625 -163.859375 -21.171875 -163.378906 -20.203125 -162.421875 C -18.285156 -159.765625 -15.757812 -155.429688 -12.625 -149.421875 C -9.5 -143.410156 -6.851562 -139.078125 -4.6875 -136.421875 C 0.125 -130.171875 5.175781 -126.5625 10.46875 -125.59375 L 11.546875 -125.59375 C 14.921875 -125.59375 21.175781 -126.316406 30.3125 -127.765625 C 33.6875 -128.242188 35.375 -129.207031 35.375 -130.65625 C 35.375 -131.851562 34.410156 -133.296875 32.484375 -134.984375 C 22.859375 -143.398438 16.242188 -151.941406 12.640625 -160.609375 C 9.984375 -166.628906 8.65625 -172.765625 8.65625 -179.015625 C 8.65625 -185.273438 10.101562 -191.769531 13 -198.5 C 18.53125 -211.738281 27.550781 -220.160156 40.0625 -223.765625 C 43.425781 -224.734375 46.796875 -225.21875 50.171875 -225.21875 C 57.628906 -225.21875 64.847656 -223.050781 71.828125 -218.71875 C 77.359375 -215.59375 81.445312 -206.691406 84.09375 -192.015625 C 84.8125 -187.679688 85.171875 -183.347656 85.171875 -179.015625 C 85.171875 -165.296875 81.082031 -151.703125 72.90625 -138.234375 C 72.425781 -137.273438 72.1875 -136.429688 72.1875 -135.703125 C 72.1875 -134.265625 72.664062 -132.941406 73.625 -131.734375 C 74.101562 -131.015625 74.828125 -130.050781 75.796875 -128.84375 C 76.992188 -127.644531 77.835938 -126.804688 78.328125 -126.328125 C 94.679688 -101.535156 105.503906 -80.359375 110.796875 -62.796875 C 112.003906 -58.953125 112.609375 -54.503906 112.609375 -49.453125 C 112.609375 -43.429688 111.765625 -36.691406 110.078125 -29.234375 C 106.953125 -15.515625 102.503906 -5.648438 96.734375 0.359375 C 91.429688 7.335938 83.367188 13.59375 72.546875 19.125 C 62.203125 24.175781 50.171875 26.703125 36.453125 26.703125 C 34.285156 26.703125 32 26.582031 29.59375 26.34375 C 19.007812 25.863281 10.46875 21.414062 3.96875 13 C -3.96875 2.40625 -8.78125 -7.941406 -10.46875 -18.046875 Z M -10.46875 -18.046875 "/></g></g></g></svg>